<svg width="16" height="16" viewBox="0 0 16 16" fill="none" xmlns="http://www.w3.org/2000/svg">
<path d="M14.4762 6.94582V6.18182C14.4762 2.77309 11.571 0 8 0C4.42895 0 1.52381 2.77309 1.52381 6.18182V6.94582C0.655429 7.11473 0 7.84945 0 8.72727V10.7273C0 11.7298 0.854476 12.5455 1.90476 12.5455H3.42857C3.84876 12.5455 4.19048 12.2193 4.19048 11.8182V7.63636C4.19048 7.23527 3.84876 6.90909 3.42857 6.90909H2.28571V6.18182C2.28571 5.08818 2.6259 4.06945 3.20895 3.21473L3.38857 3.38636C3.60591 3.59382 3.89371 3.70764 4.20038 3.70764C4.20267 3.70764 4.20457 3.70764 4.20667 3.70764C4.51029 3.70618 4.79371 3.592 5.00457 3.386C5.79962 2.60964 6.86343 2.18182 8 2.18182C9.13657 2.18182 10.2004 2.60964 10.9956 3.38618C11.2063 3.592 11.4899 3.70618 11.7933 3.70764C11.7954 3.70764 11.7973 3.70764 11.7996 3.70764C12.1061 3.70764 12.3943 3.59364 12.6114 3.38636L12.791 3.21473C13.3741 4.06945 13.7143 5.08818 13.7143 6.18182V6.90909H12.5714C12.1512 6.90909 11.8095 7.23527 11.8095 7.63636V11.8182C11.8095 12.2193 12.1512 12.5455 12.5714 12.5455H13.7143V13.2727C13.7143 13.8744 13.2017 14.3636 12.5714 14.3636H9.6581C9.49371 13.8385 8.98362 13.4545 8.38095 13.4545H7.61905C6.884 13.4545 6.28571 14.0256 6.28571 14.7273C6.28571 15.4289 6.884 16 7.61905 16H8.38095C8.98362 16 9.49371 15.6158 9.6581 15.0909H12.5714C13.6217 15.0909 14.4762 14.2753 14.4762 13.2727V12.5087C15.3446 12.3398 16 11.6051 16 10.7273V8.72727C16 7.84927 15.3446 7.11473 14.4762 6.94582Z" fill="#A4A6B3"/>
</svg>
