<svg width="17" height="16" viewBox="0 0 17 16" fill="none" xmlns="http://www.w3.org/2000/svg">
<g clip-path="url(#clip0_665_8812)">
<path fill-rule="evenodd" clip-rule="evenodd" d="M8.5 14C11.8137 14 14.5 11.3137 14.5 8C14.5 4.68629 11.8137 2 8.5 2C5.18629 2 2.5 4.68629 2.5 8C2.5 11.3137 5.18629 14 8.5 14ZM8.5 16C12.9183 16 16.5 12.4183 16.5 8C16.5 3.58172 12.9183 0 8.5 0C4.08172 0 0.5 3.58172 0.5 8C0.5 12.4183 4.08172 16 8.5 16ZM9.20711 4.29289L12.2071 7.29289C12.3852 7.47097 12.4821 7.69951 12.4977 7.93248C12.5022 7.99775 12.5002 8.06364 12.4917 8.12918C12.4673 8.31746 12.3893 8.50013 12.2578 8.65254C12.2399 8.67329 12.2212 8.69326 12.2018 8.7124L9.20711 11.7071C8.81658 12.0976 8.18342 12.0976 7.79289 11.7071C7.40237 11.3166 7.40237 10.6834 7.79289 10.2929L9.08579 9H5.5C4.94772 9 4.5 8.55228 4.5 8C4.5 7.44772 4.94772 7 5.5 7H9.08579L7.79289 5.70711C7.40237 5.31658 7.40237 4.68342 7.79289 4.29289C8.18342 3.90237 8.81658 3.90237 9.20711 4.29289Z" fill="#2B32EA"/>
</g>
<defs>
<clipPath id="clip0_665_8812">
<rect width="16" height="16" fill="white" transform="translate(0.5)"/>
</clipPath>
</defs>
</svg>
