<svg width="80" height="18" viewBox="0 0 80 18" fill="none" xmlns="http://www.w3.org/2000/svg">
  <path d="M0 13.8388H8.59484V11.5568H2.83872V0.74787H0V13.8388Z" fill="white"/>
  <path d="M10.4223 13.8388H13.2151V4.0206H10.4223V13.8388ZM11.8253 2.75497C12.6579 2.75497 13.3397 2.13494 13.3397 1.37429C13.3397 0.620029 12.6579 0 11.8253 0C10.9992 0 10.3174 0.620029 10.3174 1.37429C10.3174 2.13494 10.9992 2.75497 11.8253 2.75497Z" fill="white"/>
  <path d="M18.2452 8.16264C18.2517 6.89702 19.0253 6.15554 20.153 6.15554C21.274 6.15554 21.9493 6.87145 21.9427 8.07315V13.8388H24.7356V7.58736C24.7356 5.29901 23.3588 3.89276 21.2609 3.89276C19.7662 3.89276 18.6844 4.60866 18.2321 5.75284H18.1141V4.0206H15.4524V13.8388H18.2452V8.16264Z" fill="white"/>
  <path d="M26.9367 13.8388H29.7296V10.7195L30.4835 9.8821L33.2304 13.8388H36.5019L32.5748 8.27131L36.3117 4.0206H33.1059L29.8804 7.74716H29.7296V0.74787H26.9367V13.8388Z" fill="white"/>
  <path d="M42.494 13.8388C46.5849 13.8388 49.063 11.3714 49.063 7.28054C49.063 3.20241 46.5849 0.74787 42.5333 0.74787H37.7344V13.8388H42.494ZM40.5731 11.4673V3.11932H42.3825C44.9 3.11932 46.2309 4.37216 46.2309 7.28054C46.2309 10.2017 44.9 11.4673 42.376 11.4673H40.5731Z" fill="white"/>
  <path d="M51.1134 13.8388H53.9062V8.28409C53.9062 7.07599 54.811 6.24503 56.0435 6.24503C56.4303 6.24503 56.9613 6.30895 57.2236 6.39205V3.97585C56.9744 3.91832 56.627 3.87997 56.3451 3.87997C55.2174 3.87997 54.293 4.51918 53.9259 5.73366H53.821V4.0206H51.1134V13.8388Z" fill="white"/>
  <path d="M62.7486 14.0305C65.8036 14.0305 67.7049 11.9915 67.7049 8.96804C67.7049 5.92543 65.8036 3.89276 62.7486 3.89276C59.6935 3.89276 57.7923 5.92543 57.7923 8.96804C57.7923 11.9915 59.6935 14.0305 62.7486 14.0305ZM62.7617 11.9212C61.3522 11.9212 60.631 10.6619 60.631 8.94886C60.631 7.2358 61.3522 5.97017 62.7617 5.97017C64.145 5.97017 64.8661 7.2358 64.8661 8.94886C64.8661 10.6619 64.145 11.9212 62.7617 11.9212Z" fill="white"/>
  <path d="M69.5209 17.5206H72.3137V12.2663H72.3989C72.7857 13.0845 73.6314 13.9986 75.2573 13.9986C77.5519 13.9986 79.3417 12.228 79.3417 8.94247C79.3417 5.56747 77.4732 3.89276 75.2639 3.89276C73.579 3.89276 72.7726 4.87074 72.3989 5.66974H72.2744V4.0206H69.5209V17.5206ZM72.2547 8.92969C72.2547 7.17827 73.0152 6.05966 74.3723 6.05966C75.7556 6.05966 76.4898 7.2294 76.4898 8.92969C76.4898 10.6428 75.7425 11.8317 74.3723 11.8317C73.0283 11.8317 72.2547 10.6811 72.2547 8.92969Z" fill="white"/>
</svg>
