<svg width="20" height="24" viewBox="0 0 20 24" fill="none" xmlns="http://www.w3.org/2000/svg">
<path d="M8.81309 14.5184L6.71069 15.2224C6.34909 15.344 6.05469 15.7536 6.05469 16.1344V18.6496C6.05469 19.1392 6.43549 19.4112 6.89629 19.2576L9.31549 18.448C9.70589 18.3168 10.3459 18.3168 10.7363 18.448L13.1555 19.2576C13.6195 19.4112 13.9971 19.1392 13.9971 18.6496V16.1344C13.9971 15.7536 13.7027 15.344 13.3411 15.2224L11.2387 14.5184C10.5731 14.2944 9.47869 14.2944 8.81309 14.5184Z" fill="#252733"/>
<path d="M10.0259 12.3968L10.6819 10.7264L12.1379 7.00804C10.6307 6.83203 9.22266 6.88003 7.93945 7.06563L9.37306 10.7232L10.0259 12.3968Z" fill="#252733"/>
<path d="M19.7696 6.48961C19.648 5.85601 19.3728 5.25121 18.9728 4.74241C18.8992 4.64961 18.8192 4.55681 18.736 4.46721C18.6144 4.33921 18.4896 4.21121 18.3488 4.07681C18.3424 4.07041 18.3392 4.06721 18.3328 4.06081C18.2848 4.01601 18.2336 3.96801 18.176 3.91361L18.1664 3.90401C18.16 3.89761 18.1504 3.89121 18.144 3.88161L18.1408 3.87841C18.1344 3.87201 18.1248 3.86561 18.1184 3.85921C18.064 3.81121 18.0032 3.76001 17.936 3.69921L17.9296 3.69601L17.9264 3.69281L17.9168 3.68321C17.9168 3.68321 17.8912 3.66081 17.84 3.61921C17.8208 3.60321 17.7952 3.58081 17.7632 3.55521L17.7472 3.54241C17.7152 3.51681 17.68 3.48801 17.6416 3.45921L17.6352 3.45281C16.8224 2.80641 15.9008 2.26241 14.8992 1.83681C14.336 1.59681 13.7472 1.39521 13.1488 1.23841C13.1456 1.23841 13.1392 1.23521 13.1328 1.23521C13.12 1.23201 13.1072 1.22881 13.0976 1.22561L13.0816 1.22241C13.0016 1.20321 12.9248 1.18401 12.848 1.16481L12.8352 1.16161C12.8256 1.15841 12.8128 1.15521 12.8032 1.15521C12.7808 1.14881 12.7552 1.14561 12.7328 1.13921L12.7104 1.13281L12.6944 1.12961C12.6688 1.12321 12.6464 1.12001 12.6208 1.11361C12.592 1.10721 12.5664 1.10081 12.5376 1.09761L12.528 1.09441C12.496 1.08801 12.464 1.08161 12.432 1.07521C12.4032 1.06881 12.3744 1.06241 12.3456 1.05921C12.3136 1.05281 12.2784 1.04641 12.2432 1.04001H12.2368C12.2112 1.03681 12.1856 1.03041 12.16 1.02721C12.1216 1.02081 12.0832 1.01441 12.0448 1.00801L12.0256 1.00481C12.0096 1.00161 11.9936 0.998414 11.9776 0.995214C11.9104 0.985614 11.8496 0.976014 11.792 0.966414H11.7824H11.7792C11.7216 0.956814 11.6608 0.950413 11.6 0.940813H11.5968H11.5872C11.4624 0.924813 11.3344 0.908814 11.2096 0.896014H11.1936H11.1872C11.1328 0.889614 11.0784 0.886414 11.0272 0.880014L10.9888 0.876813C10.9344 0.873613 10.88 0.867214 10.8256 0.864014H10.8224H10.8064C10.7456 0.860814 10.6816 0.857614 10.6208 0.854414H10.6016H10.5952C10.544 0.851214 10.4928 0.851214 10.4416 0.848014C10.4256 0.848014 10.4064 0.848013 10.3904 0.844813C10.3456 0.844813 10.3008 0.841614 10.256 0.841614H10.2432C10.2304 0.841614 10.2176 0.841614 10.208 0.841614C10.1408 0.841614 10.0832 0.841614 10.0288 0.841614H10.0224H10.0192C9.96797 0.841614 9.91357 0.841614 9.84957 0.841614C9.83677 0.841614 9.82077 0.841614 9.80797 0.841614H9.79517C9.75357 0.841614 9.71197 0.844813 9.67037 0.844813C9.65117 0.844813 9.62877 0.844814 9.60957 0.848014C9.56477 0.848014 9.51997 0.851214 9.47517 0.854414H9.46237C9.45277 0.854414 9.43997 0.854414 9.43037 0.854414C9.37277 0.857614 9.31517 0.860814 9.25757 0.864014C9.24477 0.864014 9.23517 0.867214 9.22237 0.867214H9.20637C9.16477 0.870414 9.12317 0.873613 9.07837 0.876813C9.05597 0.880013 9.03677 0.880014 9.01437 0.883214C8.97277 0.886414 8.93437 0.889613 8.89277 0.892813H8.87677C8.86397 0.892813 8.84797 0.896014 8.83517 0.896014C8.77117 0.902414 8.71677 0.908814 8.66237 0.915214C8.65597 0.915214 8.64637 0.918414 8.63997 0.918414H8.63357C8.58237 0.924814 8.53437 0.931214 8.48317 0.937614C8.46717 0.940814 8.45117 0.940814 8.43517 0.944014H8.42237C8.38077 0.950414 8.34237 0.953614 8.30077 0.960014H8.29437C8.27517 0.963214 8.25917 0.966414 8.23997 0.966414C8.19197 0.972814 8.14397 0.982413 8.09597 0.988813H8.08637C8.07677 0.988813 8.07037 0.992014 8.06077 0.992014C8.00317 1.00161 7.94557 1.01121 7.88477 1.02081C7.87197 1.02401 7.86237 1.02401 7.84957 1.02721L7.83357 1.03041C7.79197 1.03681 7.74717 1.04641 7.70557 1.05601C7.68637 1.05921 7.66717 1.06241 7.64797 1.06881C7.60637 1.07841 7.56157 1.08481 7.51997 1.09441L7.50397 1.09761C7.49437 1.10081 7.48157 1.10081 7.47197 1.10401C7.41117 1.11681 7.35357 1.12961 7.29917 1.14241C7.29277 1.14561 7.28317 1.14561 7.27677 1.14881L7.27037 1.15201C7.22237 1.16481 7.17437 1.17441 7.12637 1.18721C7.11037 1.19041 7.09437 1.19361 7.07837 1.20001L7.06877 1.20321C7.02717 1.21281 6.98557 1.22241 6.94717 1.23521L6.94077 1.23841C6.93117 1.24161 6.92157 1.24161 6.91517 1.24481C6.90877 1.24801 6.90237 1.24801 6.89597 1.25121C6.30077 1.40801 5.71517 1.60961 5.15197 1.84641C4.02557 2.32641 3.00797 2.95041 2.12797 3.69921C2.06397 3.75361 1.99997 3.80801 1.94237 3.86241C1.93277 3.86881 1.92637 3.87841 1.91677 3.88481L1.90717 3.89441C1.84637 3.94881 1.78877 4.00321 1.73437 4.05441C1.72157 4.06721 1.71197 4.07681 1.69917 4.08961L1.68637 4.10241C1.64157 4.14401 1.59677 4.18881 1.55197 4.23361C1.52637 4.25921 1.49757 4.28801 1.47197 4.31361C1.43677 4.35201 1.39837 4.39041 1.35997 4.42881C1.35677 4.43201 1.35357 4.43521 1.35037 4.43841C1.33757 4.45121 1.32477 4.46401 1.31517 4.47681C0.473571 5.37281 0.0831706 6.58881 0.249571 7.80801C0.412771 9.03041 1.11037 10.0992 2.16317 10.7424L6.09917 13.1488L5.62557 13.3056C5.11357 13.4784 4.63997 13.8368 4.29437 14.3168C3.94877 14.7968 3.75677 15.36 3.75677 15.9008V19.376C3.75677 19.9168 3.94877 20.48 4.29437 20.96C4.63997 21.44 5.11357 21.8016 5.62557 21.9712L8.50877 22.9344C8.92797 23.0752 9.46557 23.152 10.0256 23.152C10.5856 23.152 11.1264 23.0752 11.5424 22.9344L14.4256 21.9712C14.9376 21.7984 15.4112 21.44 15.7568 20.96C16.1024 20.48 16.2944 19.9168 16.2944 19.376V15.8976C16.2944 15.3568 16.1024 14.7936 15.7568 14.3136C15.4112 13.8336 14.9376 13.472 14.4256 13.3024L13.952 13.1456L17.888 10.7392C18.7328 10.224 19.36 9.42081 19.6512 8.47681C19.6544 8.46721 19.6576 8.46081 19.6576 8.45441C19.6608 8.44161 19.664 8.42881 19.6672 8.41921L19.6704 8.41281L19.6736 8.40321C19.68 8.38401 19.6864 8.36481 19.6896 8.34561V8.34241C19.8592 7.73761 19.8848 7.10081 19.7696 6.48961ZM17.3888 9.91681L11.696 13.3984L14.1248 14.2112C14.7936 14.4352 15.3376 15.1936 15.3376 15.8976V19.3728C15.3376 20.0768 14.7904 20.8352 14.1248 21.0592L11.2416 22.0224C10.5728 22.2464 9.48157 22.2464 8.81277 22.0224L5.92957 21.056C5.26077 20.832 4.71677 20.0736 4.71677 19.3696V15.8976C4.71677 15.1936 5.26397 14.4352 5.92957 14.2112L8.35837 13.3984L2.66237 9.91681C0.979171 8.88641 0.662371 6.56641 2.01597 5.12961C2.25277 4.87681 2.50557 4.64001 2.77117 4.41281C2.77117 4.41281 3.89437 3.42401 5.38877 2.72321C5.51357 2.66561 5.64797 2.78081 5.60957 2.91521C5.39517 3.62561 5.01437 5.32161 5.67357 6.80641C5.83677 7.15521 5.65437 7.56801 5.28637 7.68641C4.80957 7.83681 4.36157 8.00321 3.93917 8.17921C3.70877 8.27521 3.67037 8.58241 3.87197 8.73281L6.56317 10.7328L8.81277 12.4032L8.19517 10.7328L6.91197 7.26081C6.91197 7.25761 6.91197 7.25761 6.91197 7.25761C6.91197 7.25761 6.11197 4.84481 6.70077 2.63361C6.76157 2.40961 6.93757 2.23361 7.16157 2.17601C8.10237 1.92961 9.07197 1.80161 10.0288 1.80161C10.9856 1.80161 11.9584 1.93281 12.896 2.17601C13.12 2.23361 13.296 2.40961 13.3568 2.63361C13.9456 4.84481 13.1488 7.25441 13.1456 7.25761L11.8624 10.7328L11.2448 12.4032L13.4944 10.7328L16.3776 8.58881C16.5824 8.43841 16.5344 8.12161 16.2976 8.03201C15.808 7.84961 15.3248 7.69281 14.8512 7.55841C14.8 7.54561 14.752 7.52321 14.7104 7.50081C14.3968 7.45921 14.2368 7.26401 14.384 6.81281C15.0432 5.33121 14.6624 3.63201 14.448 2.92161C14.4096 2.79041 14.544 2.67201 14.6688 2.72961C16.1632 3.43041 17.2864 4.41921 17.2864 4.41921C17.5552 4.64641 17.808 4.88961 18.048 5.14241C19.392 6.57281 19.072 8.88961 17.3888 9.91681Z" fill="#252733"/>
</svg>
