<svg width="30" height="34" viewBox="0 0 30 34" fill="none" xmlns="http://www.w3.org/2000/svg">
<path d="M28.5815 5.65477C28.1756 5.23237 27.7454 4.83282 27.2931 4.45806V4.45806C27.2931 4.45806 25.3906 2.82237 22.8598 1.66008C22.8123 1.63847 22.7594 1.63079 22.7075 1.63795C22.6556 1.64511 22.607 1.66682 22.5675 1.70044C22.5279 1.73406 22.4992 1.77815 22.4848 1.82738C22.4704 1.8766 22.471 1.92885 22.4863 1.97779C22.8484 3.15332 23.4951 5.96189 22.3779 8.41516C22.1291 9.16337 22.4012 9.48479 22.9319 9.55521C23.0076 9.59713 23.0883 9.63002 23.172 9.65318C23.976 9.87416 24.7936 10.1354 25.6247 10.4369C25.7163 10.47 25.7971 10.5266 25.8584 10.6008C25.9198 10.6751 25.9595 10.7641 25.9733 10.8585C25.9871 10.953 25.9746 11.0493 25.937 11.1374C25.8994 11.2254 25.8381 11.3019 25.7597 11.3588L20.8733 14.9065L17.0606 17.6712L18.1072 14.9044L20.2824 9.15543C20.2824 9.15013 21.6375 5.16126 20.6386 1.50281C20.5889 1.3207 20.4907 1.15471 20.354 1.02178C20.2172 0.888849 20.0468 0.793729 19.8602 0.746124C16.6766 -0.0820414 13.3267 -0.0820414 10.1431 0.746124C9.95625 0.793515 9.78561 0.888545 9.64866 1.0215C9.51171 1.15445 9.41337 1.32055 9.36369 1.50281C8.36309 5.16391 9.72034 9.15543 9.72034 9.15543V9.15966L11.8939 14.9044L12.9411 17.6712L9.12953 14.9044L4.57156 11.5986C4.49454 11.5428 4.43406 11.4681 4.39628 11.382C4.35851 11.2958 4.34479 11.2015 4.35653 11.1085C4.36826 11.0156 4.40504 10.9273 4.4631 10.8527C4.52116 10.7782 4.59842 10.72 4.68701 10.6842C5.40141 10.394 6.16568 10.116 6.96843 9.8671C7.11498 9.82151 7.24992 9.74597 7.36429 9.64551C7.47866 9.54506 7.56984 9.42197 7.63177 9.28444C7.6937 9.14691 7.72496 8.99809 7.72349 8.84784C7.72201 8.6976 7.68783 8.54938 7.62321 8.41304C6.50445 5.95925 7.1511 3.15067 7.51481 1.97567C7.5301 1.92679 7.53059 1.87463 7.5162 1.82549C7.50182 1.77635 7.47319 1.73233 7.43376 1.69873C7.39433 1.66514 7.34579 1.64341 7.29399 1.63618C7.2422 1.62894 7.18937 1.63651 7.14189 1.65796C4.61058 2.82025 2.70804 4.45594 2.70804 4.45594C2.25974 4.8274 1.83321 5.22323 1.43046 5.64153C-0.858548 8.02437 -0.325727 11.8607 2.52809 13.5658L12.1725 19.3296L8.05901 20.6746C6.92832 21.0453 6.00307 22.2992 6.00307 23.4641V29.2131C6.00307 30.378 6.92832 31.633 8.05901 32.0026L12.9411 33.5975C14.0723 33.9682 15.9223 33.9682 17.0541 33.5975L21.9389 32.0026C23.0696 31.632 23.9954 30.378 23.9954 29.2131V23.4641C23.9954 22.2992 23.0696 21.0442 21.9389 20.6746L17.827 19.3296L27.4752 13.5663C30.3215 11.866 30.8635 8.03496 28.5815 5.65477ZM11.4635 8.85201C13.8196 8.51795 16.2103 8.48537 18.575 8.75511L16.1093 14.9044L15.0008 17.6712L13.8918 14.9044L11.4635 8.85201ZM20.6196 22.3447C21.2305 22.5443 21.7302 23.2221 21.7302 23.8512V28.0137C21.7302 28.8228 21.0879 29.2745 20.3025 29.0198L16.2025 27.6801C15.5413 27.4641 14.4583 27.4641 13.797 27.6801L9.69704 29.0198C8.91163 29.2761 8.26932 28.8244 8.26932 28.0137V23.8512C8.26932 23.2221 8.76907 22.5438 9.37995 22.3447L12.9411 21.1829C14.0723 20.8123 15.9223 20.8123 17.0541 21.1829L20.6196 22.3447Z" fill="white"/>
</svg>
